# xmcd
#
# Track frame offsets: 
#        150
#        13939
#        29674
#        48018
#        63644
#        90720
#        106711
#        125770
#        156694
#
# Disc length: 2344 seconds
#
# Revision: 0
# Processed by: cddbd v1.5.2PL0 Copyright (c) Steve Scherf et al.
# Submitted via: ExactAudioCopy v1.0b4
#
DISCID=7b092609
DTITLE=Johnny Copeland - Texas Twister (LP)
DYEAR=1984
DGENRE=Blues
TTITLE0=Midnight Fantasy
TTITLE1=North Carolina
TTITLE2=Don't Stop By The Creek, Son (feat. Stevie Ray Vaughan)
TTITLE3=Excuses
TTITLE4=Jessanne
TTITLE5=Houston
TTITLE6=When The Rain Starts Fallin' (feat. Stevie Ray Vaughan)
TTITLE7=I De Go Now
TTITLE8=Early In The Mornin
EXTD=
EXTT0=
EXTT1=
EXTT2=
EXTT3=
EXTT4=
EXTT5=
EXTT6=
EXTT7=
EXTT8=
PLAYORDER=
